<?xml version="1.0" encoding="utf-8"?>
<!-- Generator: Adobe Illustrator 23.0.2, SVG Export Plug-In . SVG Version: 6.00 Build 0)  -->
<svg version="1.1" id="Layer_1" xmlns="http://www.w3.org/2000/svg" xmlns:xlink="http://www.w3.org/1999/xlink" x="0px" y="0px"
	 viewBox="0 0 358.7 275" style="enable-background:new 0 0 358.7 275;" xml:space="preserve">
<style type="text/css">
	.st0{display:none;}
	.st1{display:inline;fill:none;stroke:#0F111A;stroke-width:6;stroke-miterlimit:10;}
	.st2{display:inline;fill:none;stroke:#FFFFFF;stroke-width:2;stroke-miterlimit:10;}
	.st3{display:inline;fill:none;stroke:#00FF00;stroke-width:2;stroke-miterlimit:10;}
	.st4{display:inline;}
	.st5{fill:none;stroke:#00FF00;stroke-width:2;stroke-miterlimit:10;}
	.st6{display:inline;fill:none;stroke:#00FF00;stroke-width:1.844;stroke-miterlimit:10;}
	.st7{display:none;fill:none;stroke:#00FF00;stroke-width:3;stroke-miterlimit:10;}
	.st8{display:inline;fill:none;stroke:#00FF00;stroke-width:3;stroke-miterlimit:10;}
	.st9{fill:none;stroke:#00FF00;stroke-width:3;stroke-miterlimit:10;}
	.st10{fill:#FFFED7;}
	.st11{display:none;fill:#FFFED7;}
	.st12{fill:#131314;}
	.st13{display:inline;fill:#FFFED7;}
	.st14{display:inline;fill:none;stroke:#FFFED7;stroke-width:2;stroke-miterlimit:10;}
	.st15{fill:#FFFF00;}
</style>
<g>
	<g>
		<path class="st15" d="M59.37,174.58l-28.9,50.66L1.5,174.58H0v61.76h1.76v-57.82L29.9,227.6h1.06l28.15-49.24v57.98h1.76v-61.76
			H59.37z"/>
		<path class="st15" d="M139.74,216.05h-38.38l-0.88,1.67h40.14L139.74,216.05z M121.48,174.58h-1.77l-28.67,61.76h2.03l8.63-18.62
			l0.77-1.67l18.13-39.1l18.12,39.1l0.77,1.67l8.63,18.62h2.03L121.48,174.58z"/>
		<path class="st15" d="M175.91,174.58v1.68h23.11v42.79c0,10.58-4.44,15.88-13.32,15.88c-2.88,0-5.54-0.71-7.98-2.12
			s-4.52-3.41-6.22-6l-1.24,1.06c1.65,2.7,3.84,4.84,6.58,6.39c2.73,1.56,5.66,2.34,8.77,2.34c5.06,0,8.85-1.45,11.38-4.36
			c2.53-2.92,3.8-7.25,3.8-13.02v-44.64H175.91z"/>
		<path class="st15" d="M259.79,202.91l-0.87-0.98l-1.32,1.15l0.91,1.03l28.47,32.23h2.38L259.79,202.91z M284.95,174.58
			l-41.82,42.96l-0.35,0.36v2.38l0.35-0.36l15.38-15.81l0.06-0.06l1.06-0.97l0.16-0.17l27.54-28.33H284.95z M241.37,174.58v61.76
			h1.76v-61.76H241.37z"/>
		<path class="st15" d="M321.92,234.66v-60.08h-1.77v61.76h38.55v-1.68H321.92z"/>
	</g>
	<g>
		<path class="st15" d="M57.64,252.18v0.62h8.44v22.11h0.65V252.8h8.44v-0.62H57.64z"/>
		<path class="st15" d="M87.9,263.06v0.61h12.69v-0.61H87.9z M88.06,274.29V252.8h14v-0.62H87.41v22.73h15.13v-0.62H88.06z"/>
		<path class="st15" d="M129.91,273.75c-1.23,0.42-2.54,0.64-3.93,0.64c-1.56,0-3.01-0.28-4.35-0.83c-1.34-0.55-2.51-1.32-3.5-2.31
			c-1-0.98-1.77-2.13-2.33-3.44c-0.55-1.31-0.82-2.73-0.82-4.27c0-1.53,0.27-2.96,0.82-4.27c0.56-1.31,1.33-2.45,2.33-3.44
			c0.99-0.98,2.16-1.75,3.5-2.3c1.34-0.56,2.79-0.83,4.35-0.83c1.39,0,2.7,0.21,3.93,0.62c1.23,0.41,2.37,1.11,3.41,2.11l0.39-0.46
			c-0.97-0.97-2.13-1.7-3.47-2.17c-1.35-0.48-2.76-0.72-4.26-0.72c-1.66,0-3.21,0.29-4.62,0.86c-1.42,0.58-2.66,1.38-3.7,2.42
			c-1.05,1.04-1.87,2.25-2.46,3.64c-0.58,1.38-0.87,2.9-0.87,4.54c0,1.65,0.29,3.16,0.87,4.55c0.59,1.38,1.41,2.59,2.46,3.63
			c1.04,1.04,2.28,1.85,3.7,2.42c1.41,0.58,2.96,0.86,4.62,0.86c1.5,0,2.91-0.24,4.26-0.73c1.34-0.48,2.5-1.22,3.47-2.19l-0.39-0.45
			C132.28,272.62,131.14,273.33,129.91,273.75z"/>
		<path class="st15" d="M182.6,257.7c-0.99-1.71-2.39-3.06-4.19-4.04c-1.79-0.99-3.89-1.48-6.29-1.48h-8.61v22.73h8.61
			c2.4,0,4.5-0.5,6.29-1.48c1.8-0.99,3.2-2.33,4.19-4.04c1-1.71,1.5-3.66,1.5-5.85C184.1,261.36,183.6,259.41,182.6,257.7z
			 M182.05,269.08c-0.93,1.61-2.25,2.88-3.96,3.81c-1.71,0.93-3.72,1.4-6.04,1.4h-7.89V252.8h7.89c2.32,0,4.33,0.46,6.04,1.39
			c1.71,0.93,3.03,2.21,3.96,3.82s1.4,3.46,1.4,5.53C183.45,265.62,182.98,267.47,182.05,269.08z"/>
		<path class="st15" d="M198.12,252.18v22.73h0.65v-22.73H198.12z"/>
		<path class="st15" d="M231.23,252.18l-9.8,21.85l-9.8-21.85h-0.75l10.23,22.73h0.64l10.23-22.73H231.23z"/>
		<path class="st15" d="M244.42,263.06v0.61h12.69v-0.61H244.42z M244.58,274.29V252.8h13.99v-0.62h-14.64v22.73h15.13v-0.62H244.58
			z"/>
		<path class="st15" d="M284.45,266.72l-0.04-0.06h-0.81l0.16,0.22l5.78,8.03h0.81L284.45,266.72z M288.96,255.62
			c-0.72-1.1-1.74-1.95-3.07-2.55c-1.33-0.59-2.93-0.89-4.79-0.89h-7.69v22.73h0.65v-7.8h7.04c0.96,0,1.85-0.08,2.66-0.23
			c0.24-0.05,0.47-0.1,0.69-0.16c0.51-0.13,0.99-0.3,1.44-0.5c1.33-0.59,2.35-1.45,3.07-2.56c0.71-1.12,1.07-2.46,1.07-4.01
			C290.03,258.07,289.67,256.73,288.96,255.62z M287.27,264.7c-1.41,1.2-3.44,1.8-6.1,1.8h-7.11v0.26l-0.3-0.26h0.3v-13.7h-0.3
			l0.3-0.26v0.26h7.11c2.66,0,4.69,0.59,6.1,1.78c1.41,1.19,2.11,2.88,2.11,5.07C289.38,261.81,288.68,263.49,287.27,264.7z"/>
	</g>
	<g>
		<g>
			<g>
				<path class="st15" d="M141.39,48.31c-0.13-0.35-0.29-0.65-0.5-0.93c-0.17-0.26-0.39-0.5-0.63-0.7
					c-1.48-1.23-3.43-0.89-3.51-0.87l-24.88,4.68l-0.02,0.01c-0.06,0.01-1.15,0.27-2.11,1.05c-0.31,0.25-0.61,0.55-0.85,0.91
					c-0.07,0.1-0.13,0.21-0.19,0.32c-0.56,1.06-0.56,2.34,0,3.78c0.49,1.23,2.12,4.19,4.24,6.54c0.43,0.48,0.89,0.93,1.35,1.33
					c1.3,1.13,2.7,1.91,4.09,1.91c0.22,0,0.45-0.02,0.67-0.06c0.3-0.06,0.57-0.18,0.83-0.37c0.31-0.21,0.59-0.52,0.86-0.88
					c1.08-1.49,1.84-4.06,2.59-6.57c0.5-1.69,1.19-4,1.64-4.23c1-0.51,2.51,0.78,3.01,1.32c0.21,0.23,4.98,5.32,8.01,6.74
					c0.25,0.12,0.49,0.22,0.71,0.28c0.25,0.07,0.51,0.1,0.75,0.07c0.41-0.03,0.81-0.19,1.18-0.46c0.75-0.56,1.37-1.62,1.85-2.96
					c0.22-0.58,0.41-1.2,0.56-1.87c0.37-1.5,0.61-3.17,0.7-4.81c0.04-0.55,0.06-1.1,0.06-1.64v-0.15
					C141.8,49.81,141.66,48.99,141.39,48.31z M138.01,61.36c-0.34,0.26-0.66,0.33-1.03,0.23c-2.66-0.76-8.2-6.68-8.25-6.73
					c-0.1-0.11-2.33-2.51-4.23-1.54c-0.79,0.41-1.31,2.03-2.15,4.85c-0.86,2.88-2.03,6.83-3.49,7.1c-3.67,0.7-8.25-6.66-9.21-9.09
					c-0.45-1.15-0.47-2.13-0.05-2.92c0.68-1.3,2.34-1.74,2.47-1.77l24.86-4.68c0.02,0,1.58-0.26,2.68,0.66
					c0.78,0.66,1.17,1.76,1.17,3.28C140.78,54.94,139.75,60.06,138.01,61.36z"/>
			</g>
			<g>
				<path class="st15" d="M139.79,80.4v-0.01c-0.03-0.76-0.2-1.48-0.49-2.16v-0.01c-1.17-2.71-4.23-4.64-7.81-4.64
					c-2.71,0-5.13,1.11-6.65,2.83c-0.15,0.18-0.3,0.36-0.44,0.55s-0.27,0.39-0.38,0.6c-0.06,0.1-0.11,0.2-0.17,0.3
					c-0.37,0.74-0.6,1.55-0.66,2.4c-0.01,0.13-0.01,0.26-0.01,0.39c0,0.23,0.01,0.45,0.04,0.67c0.1,0.95,0.43,1.84,0.93,2.64
					c0.2,0.32,0.43,0.63,0.68,0.92c1.52,1.73,3.94,2.85,6.66,2.85c4.58,0,8.31-3.18,8.31-7.08C139.8,80.57,139.8,80.48,139.79,80.4z
					 M131.49,86.71c-4.02,0-7.29-2.72-7.29-6.06c0-3.33,3.27-6.05,7.29-6.05c4.02,0,7.29,2.72,7.29,6.05
					C138.78,83.99,135.51,86.71,131.49,86.71z"/>
			</g>
			<g>
				<path class="st15" d="M131.49,76.22c-2.85,0-5.17,1.99-5.17,4.43c0,2.45,2.32,4.44,5.17,4.44c2.85,0,5.17-1.99,5.17-4.44
					C136.66,78.21,134.34,76.22,131.49,76.22z M131.49,84.07c-2.29,0-4.15-1.54-4.15-3.42c0-1.88,1.86-3.41,4.15-3.41
					c2.29,0,4.15,1.53,4.15,3.41C135.64,82.53,133.78,84.07,131.49,84.07z"/>
			</g>
			<g>
				<path class="st15" d="M95.65,96.86l-0.73-0.71c11.1-11.39,28.47-15.94,28.64-15.99l0.25,0.99
					C123.64,81.19,106.55,85.68,95.65,96.86z"/>
			</g>
			<g>
				<path class="st15" d="M98.68,98.77l-0.59-0.83c0.77-0.54,18.89-13.35,26.91-14.1l0.1,1.02C117.34,85.58,98.86,98.63,98.68,98.77
					z"/>
			</g>
			<g>
				<path class="st15" d="M124.2,77.97c-9.34-2.72-11.21-14.53-11.28-15.03l1.01-0.15c0.02,0.12,1.85,11.66,10.56,14.2L124.2,77.97z
					"/>
			</g>
			<g>
				<path class="st15" d="M139.7,72.39l-0.82-0.61c4.16-5.62,1.17-14.15,1.14-14.23l0.96-0.35
					C141.12,57.58,144.19,66.33,139.7,72.39z"/>
			</g>
			<g>
				<path class="st15" d="M108.95,52.69c-0.09-0.36-2.16-8.94-0.62-12.3c1.71-3.74,7.54-6.61,14.84-7.34
					c12.17-1.2,19.43,3.34,21.01,13.13l-1.01,0.16c-1.5-9.3-8.2-13.44-19.9-12.28c-7.9,0.78-12.73,3.95-14.01,6.75
					c-1.39,3.04,0.66,11.55,0.69,11.63L108.95,52.69z"/>
			</g>
			<g>
				<path class="st15" d="M142.97,41.98l-1.02-0.04c0.23-5.6-2.07-11.32-6.01-14.95c-3.47-3.2-7.89-4.57-12.77-3.96
					c-11.72,1.45-12.96,16.03-12.97,16.18l-1.02-0.08c0.01-0.16,1.32-15.56,13.86-17.12c5.19-0.65,9.88,0.82,13.58,4.23
					C140.79,30.06,143.21,36.09,142.97,41.98z"/>
			</g>
			<g>
				<polygon class="st15" points="141.63,52.68 140.85,52.03 143.87,48.42 143.38,46.57 141.11,48.55 140.44,47.78 143.95,44.72 
					144.99,48.67 				"/>
			</g>
			<g>
				<path class="st15" d="M140.52,74.15l-0.64-0.79c2.62-2.12,4.2-9.26,4.72-11.61c0.83-3.72-0.66-13.03-0.67-13.13l1.01-0.16
					c0.06,0.39,1.53,9.61,0.66,13.51C144.66,66.19,143.11,72.05,140.52,74.15z"/>
			</g>
			<g>
				<path class="st15" d="M139.79,80.4l-0.99-0.26l1.42-5.4l-2.6-4.05c-0.81-0.31-4.68-1.76-7.56-2.05
					c-2.63-0.26-5.37,2.32-6.06,3.03l1.05,5.88l-1.01,0.18l-1.14-6.38l0.17-0.19c0.14-0.16,3.54-3.91,7.09-3.54
					c3.36,0.34,7.8,2.1,7.99,2.17l0.15,0.06l3.02,4.7L139.79,80.4z"/>
			</g>
			<g>
				<path class="st15" d="M125.03,66.48c-1.72,0-3.49-0.21-5.38-0.63l0.22-1c6.19,1.35,11,0.46,17.17-3.16l0.52,0.88
					C133.02,65.24,129.18,66.48,125.03,66.48z"/>
			</g>
			<g>
				<path class="st15" d="M128.64,58.47c-1.15-2.48-2.23-2.68-2.73-2.62l-0.12,0.02c-0.51,0.15-1.38,0.81-1.4,3.52
					c-0.03,2.81,0.08,4.96,1.66,5.13c0.2,0.02,0.39,0.03,0.58,0.03c0.92,0,1.78-0.24,2.61-0.72
					C130.62,63.03,129.82,61.02,128.64,58.47z M128.73,62.94c-0.82,0.48-1.64,0.66-2.58,0.56c-0.68-0.07-0.76-2.01-0.74-4.1
					c0.02-2.07,0.56-2.49,0.66-2.54c0.08,0,0.75,0.12,1.65,2.04c0.65,1.42,1.23,2.78,1.23,3.52
					C128.95,62.67,128.88,62.85,128.73,62.94z"/>
			</g>
			<g>
				<g>
					<path class="st15" d="M261.96,58.17c-7.45-8.75-16.09-14.99-25.7-18.55l-0.37-0.14l-17.61,24.4l-4.31,5.97l-24.22,33.57
						l-1.53,2.12l-7.35,10.18l-0.57,0.8l-2.86,3.96l-0.27,0.37l0.05,0.03l0.85,0.62l24.54,17.69l0.84,0.62l0.05,0.03l0.26-0.36
						l55.34-76.67l0.6-0.84l2.29-3.17l0.23-0.33L261.96,58.17z M244.47,81.33l-0.72,1.01l-1.72,2.37l-0.7,0.98l-5.26,7.28
						l-0.66,0.92l-3.02,4.18l-0.64,0.89l-18.88,26.16l-0.74,1.03l-2.71,3.75c0,0,0,0,0,0.01l-0.73,1l-5.42,7.51l-24.67-17.8
						l8.72-12.09l0.6-0.83l2.89-4.01l0.6-0.82L206.1,82.5l0.72-0.98l3.81-5.29l0.65-0.91l4.71-6.52l0.67-0.92l1.55-2.15l0.69-0.96
						l17.36-24.06c9.19,3.48,17.48,9.47,24.67,17.82L244.47,81.33z"/>
				</g>
				<g>
					<path class="st15" d="M183.53,149.6l-9.33-6.73l2.4-3.33c0.01-0.54-0.03-2.81-1.44-6.8c-1.75-4.95,2.11-11.96,2.27-12.25
						l0.89,0.5c-0.04,0.07-3.79,6.9-2.2,11.42c1.71,4.84,1.5,7.27,1.49,7.37l-0.01,0.14l-1.98,2.74l7.67,5.54l1.98-2.74l0.13-0.06
						c0.09-0.04,2.32-1,7.46-0.91c0.04,0,0.07,0,0.11,0c4.77,0,9.98-5.63,10.03-5.69l0.75,0.69c-0.23,0.25-5.57,6.02-10.78,6.02
						c-0.04,0-0.09,0-0.13,0c-4.23-0.09-6.4,0.59-6.91,0.78L183.53,149.6z"/>
				</g>
				<g>
					<path class="st15" d="M173.3,157.52c-0.62,0-1.29-0.26-2.01-0.78c-0.92-0.66-1.42-1.4-1.47-2.18
						c-0.06-0.84,0.41-1.42,0.56-1.58l6.41-8.88l0.83,0.6l-6.49,8.98c-0.01,0.01-0.33,0.34-0.29,0.82c0.04,0.45,0.4,0.94,1.05,1.41
						c0.65,0.47,1.23,0.66,1.67,0.55c0.47-0.11,0.68-0.52,0.69-0.54l0.04-0.07l6.43-8.91l0.83,0.6l-6.41,8.88
						c-0.1,0.19-0.5,0.82-1.32,1.02C173.64,157.49,173.47,157.52,173.3,157.52z"/>
				</g>
				<g>
					<polygon class="st15" points="183.23,162.1 179.01,159.05 178.87,156.22 176.11,154.23 176.7,153.4 179.86,155.68 180,158.51 
						183,160.68 187.21,154.84 184.3,152.73 181.94,153.02 178.66,150.66 179.26,149.84 182.21,151.96 184.57,151.67 188.64,154.61 
											"/>
				</g>
				<g>
					<polygon class="st15" points="172.07,151.32 168.7,148.88 171.85,144.49 175.38,147.03 174.78,147.86 172.08,145.91 
						170.12,148.65 172.67,150.49 					"/>
				</g>
			</g>
			<g>
				<path class="st15" d="M146.96,102.79l-0.53,0.9c-1.5-0.4-2.45,0.4-4.84,0.51c-4.32,0.19-10.03,1.16-19.11-0.93
					c-13.65-3.14-17.36-6.41-17.77-6.81l-1.26-0.92l-0.03-0.02c-0.63,0.33-2.32,1.28-4.19,2.86c-0.01,0.01-0.03,0.02-0.04,0.03
					c-2.21,1.88-4.68,4.66-5.98,8.37c0.65,0.67,2.69,2.76,5.15,4.87c0.27,0.23,0.54,0.45,0.81,0.68c-0.14,0.33-0.27,0.67-0.39,1.01
					c-0.28-0.22-0.55-0.45-0.82-0.67c-3.05-2.6-5.52-5.2-5.71-5.41l-0.21-0.22l0.1-0.29c0.07-0.23,0.15-0.45,0.24-0.67
					c0.12-0.33,0.25-0.65,0.39-0.97c1.27-2.87,3.15-5.13,4.97-6.8c0.12-0.12,0.25-0.24,0.37-0.35c0.1-0.08,0.2-0.17,0.3-0.25
					c0.01-0.01,0.01-0.02,0.02-0.02c0.04-0.04,0.08-0.07,0.12-0.11c2.11-1.79,4-2.78,4.55-3.05c0.01,0,0.02-0.01,0.03-0.01
					c0.06-0.03,0.1-0.05,0.12-0.06l0.27-0.13l0.85,0.62l1.04,0.76c0.03,0.03,3.44,3.38,17.3,6.57c8.95,2.05,14.57,1.09,18.83,0.9
					c2.04-0.09,3.26-0.59,4.56-0.52C146.38,102.67,146.66,102.71,146.96,102.79z"/>
			</g>
			<g>
				<path class="st15" d="M91.63,135.89c-0.13-0.09-14.16-9.17-18.39-11.7c-2.56-1.54-3.2-2.66-3.87-3.85
					c-0.49-0.87-1-1.76-2.34-2.99c-1.66-1.51-1.89-3.53-2.11-5.48c-0.25-2.21-0.51-4.49-2.74-6.43c-4.35-3.79,3.37-14.96,9.56-23.03
					c0.63-0.82,1.54-2.22,2.71-3.98c6.26-9.53,19.29-29.37,34.27-31.48l0.14,1.01C94.33,50,81.48,69.58,75.3,78.99
					c-1.17,1.79-2.1,3.2-2.75,4.05c-9.18,11.97-12.45,19.25-9.7,21.64c2.53,2.2,2.82,4.8,3.08,7.09c0.22,1.92,0.4,3.58,1.78,4.84
					c1.46,1.34,2.04,2.35,2.54,3.24c0.66,1.16,1.18,2.08,3.51,3.48c4.24,2.54,17.38,11.05,17.51,11.14L91.63,135.89z"/>
			</g>
			<g>
				<path class="st15" d="M98.15,98.52c-0.18-0.09-17.95-9.24-22.55-9.65c-1.56-0.14-1.79,0.17-1.79,0.17
					c-0.09,0.21,0.52,1.05,1.35,1.73l-0.65,0.79c-0.5-0.41-2.09-1.82-1.65-2.91c0.37-0.91,1.79-0.89,2.82-0.8
					c4.8,0.43,22.19,9.38,22.93,9.76L98.15,98.52z"/>
			</g>
			<g>
				<path class="st15" d="M84.53,94.87c-2.23-0.95-6-0.73-9.03-0.54c-3.56,0.22-5.9,0.36-6.29-0.99c-0.1-0.33-0.04-0.66,0.18-0.96
					c1.18-1.64,8.18-2,9.57-2.05l0.04,1.02c-3.25,0.13-8.13,0.72-8.78,1.63c-0.03,0.04-0.03,0.06-0.02,0.08
					c0.16,0.57,3.23,0.38,5.25,0.26c3.3-0.2,7.04-0.43,9.49,0.62L84.53,94.87z"/>
			</g>
			<g>
				<path class="st15" d="M88.18,98.79c-3.17-1.87-7.86-1.41-11.63-1.04c-3.49,0.34-6.01,0.59-6.44-1.08
					c-0.14-0.54-0.03-1.06,0.3-1.5c1.43-1.86,6.98-1.99,7.61-1.99l0.01,1.02c-2.18,0.03-5.96,0.48-6.81,1.59
					c-0.15,0.19-0.19,0.39-0.13,0.63c0.21,0.82,2.83,0.57,5.36,0.32c3.92-0.38,8.8-0.86,12.25,1.18L88.18,98.79z"/>
			</g>
			<g>
				<path class="st15" d="M92.72,106.3c-5.96-4-10.82-4.29-14.04-4.48c-2.13-0.13-3.68-0.22-4.05-1.58
					c-0.17-0.61-0.08-1.2,0.27-1.71c1.11-1.64,4.54-2.04,4.93-2.08l0.11,1.01c-0.92,0.1-3.47,0.59-4.19,1.64
					c-0.18,0.26-0.22,0.54-0.13,0.86c0.17,0.63,1.19,0.71,3.13,0.83c3.12,0.19,8.35,0.5,14.55,4.65L92.72,106.3z"/>
			</g>
			<g>
				<path class="st15" d="M155.47,139.67c-12.31,0-25.75-10.87-26.34-11.35l0.65-0.79c0.14,0.12,14.58,11.81,26.8,11.08
					c11.94-0.69,28.63-34.48,28.82-53.12c0.19-18.2-12.52-27.84-19.36-28.95c-6.69-1.09-8.21,0.15-8.22,0.17l-0.72-0.73
					c0.16-0.17,1.82-1.63,9.11-0.45c7.15,1.16,20.41,11.15,20.22,29.97c-0.18,17.78-16.33,53.35-29.78,54.13
					C156.25,139.66,155.86,139.67,155.47,139.67z"/>
			</g>
			<g>
				<g>
					<path class="st15" d="M153.24,73.7c2.66-5.84,5.19-11.37,4.76-17.09c-0.02-0.25-0.04-0.5-0.07-0.75
						c-0.01-0.11-0.03-0.21-0.05-0.31c-1.13-7.53-9.27-9.58-13.61-9.62h-0.64v0.34l0.01,1.26v1.44h0.51c0.01,0,0.22,0,0.57,0.03
						c0.09,0,0.19,0.01,0.3,0.01c2.43,0.22,9.18,1.33,9.89,7.22c0.62,5.13-1.84,10.51-4.44,16.22c-1.52,3.32-3.09,6.75-4.21,10.42
						c-2.81,9.15-0.78,17.6-0.16,19.79c0.09,0.31,0.15,0.49,0.17,0.54l0.16,0.49l2.89-0.96l-0.16-0.48c-0.03-0.09-2.9-9,0.01-18.49
						C150.24,80.27,151.76,76.93,153.24,73.7z M148.04,102.08l-0.95,0.32c-0.6-2.08-2.59-10.3,0.14-19.23
						c1.11-3.61,2.66-7.01,4.17-10.31c2.66-5.83,5.18-11.34,4.52-16.75c-0.83-6.89-8.74-7.96-11.11-8.13
						c-0.06,0-0.11-0.01-0.16-0.01v-1.01c4.14,0.14,11.43,2.15,12.26,9.02c0.7,5.71-1.88,11.34-4.6,17.3
						c-1.49,3.26-3.03,6.63-4.12,10.18C145.56,92.04,147.47,100.05,148.04,102.08z"/>
				</g>
			</g>
			<g>
				<path class="st15" d="M207.09,66.41c-0.63-11.6-19.09-14.96-30.57-14.36c-4.31,0.23-7.54-0.6-9.59-2.46
					c-1.96-1.78-2.07-3.84-2.07-3.92l1.02-0.05c0.01,0.24,0.44,5.95,10.59,5.41c11.88-0.63,30.98,2.98,31.65,15.32L207.09,66.41z"/>
			</g>
			<g>
				<path class="st15" d="M218.84,146.52c-10.56,0-17.17-5.51-17.25-5.59l0.66-0.78c0.1,0.09,10.63,8.84,26.32,3.76
					c12.94-4.19,17.48-15.56,22.28-27.61c1.1-2.75,2.23-5.59,3.48-8.37c6.56-14.62,8.32-23.38,8.34-23.46l0.08-0.41h3.75l4.34-14.86
					l-12.14-6.62l0.49-0.9l12.86,7.01l-4.79,16.39h-3.68c-0.43,1.91-2.51,10.33-8.32,23.27c-1.23,2.75-2.37,5.59-3.46,8.33
					c-4.9,12.27-9.53,23.87-22.92,28.2C225.25,146.06,221.88,146.52,218.84,146.52z"/>
			</g>
			<g>
				<path class="st15" d="M312.68,130.13c-4.75,0-10.02-1.12-14.85-4.68c-12.88-9.48-36.14-35.23-36.37-35.49l0.76-0.68
					c0.23,0.26,23.42,25.93,36.22,35.35c11.34,8.35,25.31,2.73,28.09,1.47c-1.65-2.73-10.6-16.71-26.67-27.47
					c-17.98-12.04-29.47-26.55-29.58-26.69l0.8-0.63c0.11,0.14,11.51,14.53,29.35,26.47c18.02,12.06,27.19,28.13,27.28,28.29
					l0.26,0.46l-0.47,0.24C327.38,126.83,320.8,130.13,312.68,130.13z"/>
			</g>
			<g>
				<path class="st15" d="M302.37,118.71c-8.19,0-15.38-2.84-15.87-3.03l0.38-0.95c0.19,0.08,19.1,7.53,30.31-1.75l0.65,0.79
					C313.29,117.54,307.62,118.71,302.37,118.71z"/>
			</g>
			<g>
				
					<rect x="147.49" y="19.88" transform="matrix(0.1094 -0.994 0.994 0.1094 102.2346 173.6114)" class="st15" width="1.02" height="19.74"/>
			</g>
			<g>
				<path class="st15" d="M161.77,23.4l-0.22-0.4c-0.63-0.97-1.79-1.66-3.14-1.74c-0.11-0.02-0.21-0.02-0.32-0.02
					c-0.27,0-0.54,0.02-0.79,0.07c-1.81,0.32-3.18,1.71-3.18,3.38c0,0.34,0.06,0.67,0.16,0.98c0.06,0.18,0.14,0.35,0.23,0.52
					l0.09,0.15c0.09,0.15,0.2,0.29,0.33,0.43c0.43,0.51,1.03,0.91,1.73,1.14c0.44,0.16,0.92,0.24,1.43,0.24
					c1.78,0,3.29-1.02,3.79-2.43c0.12-0.33,0.18-0.67,0.18-1.03C162.06,24.23,161.96,23.8,161.77,23.4z M161.04,24.69
					c0,1.34-1.32,2.43-2.95,2.43c-1.12,0-2.09-0.52-2.6-1.27l-0.09-0.16c-0.17-0.31-0.26-0.65-0.26-1c0-1.34,1.32-2.43,2.95-2.43
					c1.11,0,2.07,0.5,2.57,1.24h0.01c0.08,0.13,0.15,0.26,0.21,0.4C160.98,24.15,161.04,24.41,161.04,24.69z"/>
			</g>
			<g>
				<path class="st15" d="M158.99,31.46c-0.43,0-0.89-0.05-1.39-0.15l-0.23-0.05l-2.86-5.07l0.89-0.5l2.63,4.67
					c3.34,0.58,4.62-1.93,4.93-2.68l-2.3-4.18l0.89-0.49l2.52,4.58L164,27.79C163.99,27.83,162.78,31.46,158.99,31.46z"/>
			</g>
			<g>
				
					<rect x="143.05" y="13.33" transform="matrix(0.1085 -0.9941 0.9941 0.1085 103.1116 165.0063)" class="st15" width="1.02" height="23.36"/>
			</g>
			<g>
				<polygon class="st15" points="168.54,40.38 159.14,37.99 160.37,33.53 161.97,33.31 162.43,32.06 158.72,31.45 158.89,30.45 
					163.82,31.26 162.71,34.24 161.17,34.45 160.4,37.26 167.84,39.15 168.4,37.24 167.07,35.95 168.84,33.2 172.7,35.36 
					176.47,35.21 177.09,28.83 171.58,27.66 169.72,29.66 163.4,28.13 163.64,27.14 169.38,28.53 171.23,26.54 178.2,28.02 
					177.4,36.19 172.46,36.39 169.18,34.56 168.38,35.8 169.55,36.94 				"/>
			</g>
			<g>
				<path class="st15" d="M165.58,47.9c-4.46-5.45-22.6-4.65-22.78-4.64l-0.05-1.02c0.77-0.04,18.84-0.83,23.62,5.01L165.58,47.9z"
					/>
			</g>
			<g>
				
					<rect x="157.82" y="40.59" transform="matrix(0.2076 -0.9782 0.9782 0.2076 87.3046 189.9729)" class="st15" width="6.18" height="1.02"/>
			</g>
			<g>
				
					<rect x="161.22" y="41.99" transform="matrix(0.2076 -0.9782 0.9782 0.2076 88.9534 194.8219)" class="st15" width="7.02" height="1.02"/>
			</g>
			<g>
				<path class="st15" d="M178.49,51.64l-0.47-0.91c0.04-0.02,3.72-2.01,6.11-8.21c2.5-6.5-2.31-14.06-8.38-17.05
					c-6.31-3.1-12.99,0.6-13.06,0.63l-0.5-0.89c0.29-0.16,7.22-4.01,14.02-0.66c6.47,3.19,11.59,11.31,8.89,18.33
					C182.54,49.47,178.65,51.55,178.49,51.64z"/>
			</g>
			<g>
				<path class="st15" d="M191.15,47.51c-6.98-12.42-7-12.47-7.02-12.54l0.48-0.16l0.46-0.23c0.14,0.27,4.62,8.24,6.97,12.42
					L191.15,47.51z"/>
			</g>
			<g>
				<path class="st15" d="M213.57,61.29l-0.98-0.28c0.58-2,0.13-4.19-1.35-6.48c-3.09-4.8-9.49-8.41-12.72-8.88
					c-4.92-0.72-13.48,6.44-13.57,6.51l-0.66-0.78c0.36-0.31,9-7.52,14.37-6.74c3.87,0.57,10.44,4.68,13.43,9.34
					C213.74,56.53,214.23,58.99,213.57,61.29z"/>
			</g>
			<g>
				<path class="st15" d="M182.05,106.05l-0.81-0.62c0.2-0.26,20.1-26.03,21.2-30.8c1.18-5.12,8.41-15.16,12.13-14.6
					c1.85,0.28,3.15,1.15,3.58,2.39c0.34,0.97,0.3,2.59-1.79,4.81c-3.52,3.76-10.32,11.47-13.42,16.54
					c-0.53,0.86-1.66,2.31-3.09,4.14c-3.88,4.96-10.37,13.27-10.65,17.86l-1.02-0.06c0.3-4.9,6.66-13.04,10.86-18.42
					c1.41-1.81,2.52-3.23,3.02-4.04c3.15-5.14,10-12.92,13.55-16.71c1.35-1.44,1.91-2.79,1.57-3.78c-0.3-0.87-1.31-1.49-2.77-1.72
					c-2.86-0.45-9.85,8.93-10.99,13.82C202.29,79.84,182.87,104.98,182.05,106.05z"/>
			</g>
			<g>
				<path class="st15" d="M213.79,65.08c-0.45-0.64-1.3-0.82-2.27-0.46c-2.04,0.75-5.47,7.76-6.14,9.15l-0.77,1.63l1.51-0.98
					c0.19-0.12,4.66-3.02,6.68-5.43C214.06,67.5,214.44,66,213.79,65.08z M212.02,68.34c-1.19,1.41-3.35,3.06-4.84,4.12
					c1.53-2.96,3.63-6.5,4.69-6.88c0.22-0.08,0.42-0.12,0.59-0.12c0.22,0,0.4,0.07,0.49,0.2C213.19,66.01,213.14,67,212.02,68.34z"
					/>
			</g>
			<g>
				<path class="st15" d="M212.2,126.37c-4.12-14.12-21.6-22.78-21.78-22.87l0.45-0.92c0.18,0.09,18.06,8.94,22.31,23.5
					L212.2,126.37z"/>
			</g>
			<g>
				<path class="st15" d="M208.77,131.14c-2.94-9.4-21.67-22.77-21.86-22.91l0.59-0.83c0.78,0.56,19.2,13.71,22.24,23.44
					L208.77,131.14z"/>
			</g>
			<g>
				<path class="st15" d="M231.94,99.24c-10.9-17.01-25.92-16.74-26.08-16.74l-0.03-1.02c0.14,0,15.77-0.28,26.97,17.21
					L231.94,99.24z"/>
			</g>
			<g>
				<path class="st15" d="M235.54,94.15c-7.2-14.86-25.04-17.96-25.21-17.99l0.17-1.01c0.18,0.03,18.54,3.22,25.97,18.55
					L235.54,94.15z"/>
			</g>
			<g>
				<path class="st15" d="M241.42,85.93c-5.05-13.79-25.53-17.16-25.73-17.19l0.16-1.01c0.87,0.14,21.28,3.49,26.53,17.85
					L241.42,85.93z"/>
			</g>
			<g>
				<path class="st15" d="M243.83,82.57c-5.33-15.71-25.69-16.85-25.9-16.86l0.05-1.02c0.21,0.01,21.26,1.19,26.82,17.55
					L243.83,82.57z"/>
			</g>
			<g>
				<path class="st15" d="M186.51,39.21c-1.02-3.72-0.35-7.95,0.66-14.36c0.5-3.18,1.07-6.8,1.56-11.13
					c0.62-5.51-4.75-9.61-5.57-10.2l-27.84-2.43c-2.69,8.96,3.17,20.31,3.23,20.43l-0.9,0.47c-0.26-0.49-6.28-12.18-3.17-21.6
					L154.6,0l28.92,2.52l0.11,0.07c0.28,0.19,6.86,4.69,6.12,11.23c-0.49,4.36-1.06,7.98-1.57,11.18
					c-0.99,6.28-1.65,10.42-0.69,13.93L186.51,39.21z"/>
			</g>
			<g>
				<path class="st15" d="M188.96,12.06c-13.39-7.33-34.54-2.79-34.76-2.75l-0.22-1c0.22-0.05,21.74-4.67,35.47,2.85L188.96,12.06z"
					/>
			</g>
			<g>
				<path class="st15" d="M148.88,25.78c-0.05-0.2-1.39-5.01-7.68-6.08c-7.67-1.3-11.02,0.76-11.05,0.78l-0.56-0.86
					c0.15-0.09,3.67-2.31,11.78-0.93c6.96,1.18,8.44,6.6,8.5,6.83L148.88,25.78z"/>
			</g>
			<g>
				<path class="st15" d="M160.21,34.43c-0.27-0.43-3.01-0.92-5.85-1.03l-0.24-0.01l-2.01-2.56l0.8-0.63l1.72,2.19
					c2.37,0.11,6.12,0.47,6.54,1.71L160.21,34.43z"/>
			</g>
			<g>
				<polygon class="st15" points="150.79,43.17 149.77,43.17 149.77,38.93 153.66,32.28 154.54,32.79 150.79,39.21 				"/>
			</g>
			<g>
				<rect x="151.23" y="36.94" class="st15" width="8.76" height="1.02"/>
			</g>
			<g>
				<path class="st15" d="M121.83,23.15c-0.9-1.01-2.21-3.49-0.73-5.67c1.04-1.54,3-2.59,4.89-2.54c1.29,0.01,2.31,0.51,2.89,1.41
					c1.02,1.58,1.79,3.93,1.29,5.36c-0.2,0.57-0.59,0.97-1.13,1.16l-0.33-0.97c0.24-0.08,0.4-0.25,0.49-0.53
					c0.33-0.96-0.19-2.92-1.19-4.47c-0.51-0.8-1.5-0.93-2.04-0.94c-0.02,0-0.03,0-0.05,0c-1.52,0-3.15,0.85-3.98,2.09
					c-1.39,2.06,0.57,4.32,0.65,4.42L121.83,23.15z"/>
			</g>
			<g>
				<path class="st15" d="M110.05,36.51c-1.15-0.46-2.62-1.59-3.12-2.98c-0.3-0.83-0.24-1.7,0.18-2.5c1.38-2.61,5.21-1.16,5.38-1.1
					l-0.37,0.95c-0.03-0.01-3.15-1.18-4.11,0.63c-0.29,0.55-0.34,1.1-0.13,1.67c0.43,1.17,1.75,2.06,2.54,2.38L110.05,36.51z"/>
			</g>
			<g>
				<path class="st15" d="M115.1,26.75c-0.99-0.42-2.04-2.03-2.46-3.74c-0.51-2.09-0.09-4.1,1.19-5.66
					c2.45-2.98,6.52-1.62,8.33-0.49l-0.54,0.87c-0.18-0.11-4.52-2.77-7,0.27c-1.37,1.68-1.3,3.52-0.99,4.77
					c0.4,1.64,1.35,2.82,1.87,3.05L115.1,26.75z"/>
			</g>
			<g>
				<path class="st15" d="M90.36,154.45c-8.39,0-21.18-4.14-24.11-12.1c-3.55-9.63,4.06-20.33,4.38-20.78l0.83,0.6
					c-0.08,0.11-7.61,10.71-4.25,19.83c3.4,9.21,20.78,13,27.55,10.89l0.3,0.97C93.8,154.25,92.18,154.45,90.36,154.45z"/>
			</g>
			<g>
				<path class="st15" d="M92.52,150.03c-4.67,0-17.95-0.68-22.66-8.16c-4.28-6.8,2.91-17.92,3.22-18.39l0.85,0.56
					c-0.07,0.11-7.14,11.04-3.21,17.29c5.32,8.44,23.19,7.66,23.38,7.65l0.05,1.02C94.02,150,93.44,150.03,92.52,150.03z"/>
			</g>
			<g>
				<path class="st15" d="M105.18,140.09l-0.04-0.15l-0.53,0.09l-6.54,1.15l0.56,2.43l0.23,1.01l0.57,2.45l-6.09,1.13l0.16,0.78
					l0.21,1.03l0.6,2.99l0.21,1.01l0.2,0.99l13.59-1.77L105.18,140.09z M94.55,149.01l6.11-1.13L99.31,142l5.06-0.89l2.68,11.25
					l-11.52,1.51L94.55,149.01z"/>
			</g>
			<g>
				<path class="st15" d="M89.48,148.06l-4.1-3.5c-0.66-0.24-4.24-1.71-4.76-5.13c-0.17-1.08,0.06-1.92,0.66-2.48
					c0.68-0.63,1.69-0.75,2.44-0.73l-4.69-8.5l0.89-0.49l5.71,10.35l-1.1-0.24c-0.49-0.11-1.9-0.25-2.56,0.36
					c-0.34,0.32-0.46,0.85-0.35,1.58c0.47,3.07,4.14,4.34,4.18,4.35l0.09,0.03l3.8,3.24l9.37-3.44l0.35,0.96L89.48,148.06z"/>
			</g>
		</g>
		
			<rect x="179.04" y="113.89" transform="matrix(0.4609 -0.8875 0.8875 0.4609 -5.7775 221.6274)" class="st15" width="0.97" height="3.35"/>
		<g>
			<g>
				<path class="st15" d="M117.99,115.99c0.6-0.78,2.36-0.94,3.91-1.08c1.82-0.17,3.54-0.32,3.67-1.59c0.11-1.04-0.26-2.06-0.98-2.7
					c-0.58-0.53-1.31-0.75-2.02-0.6c-0.84,0.17-1.33,0.15-1.5,0.08c-0.65-0.26-1.64-0.16-2.67-0.03c-2.55,0.31-5.16,2.51-6.97,4.4
					c1.71-2.52,4.15-3.87,5.5-4.62c0.65-0.36,0.97-0.54,1.12-0.78c0.46-0.71,0.76-2.43-1.02-4.36c-0.26-0.28-0.77-0.6-1.66-0.49
					c-2.71,0.35-7.33,4.4-9.34,8.19c-0.95,1.78-1.87,2.97-2.5,3.67c0.05-2.12,0.4-2.89,1.01-4.24c0.34-0.76,0.77-1.7,1.26-3.14
					c0.66-1.96,0.67-3.28,0.01-4.04c-0.51-0.58-1.27-0.63-1.7-0.54c-2.51,0.84-4.29,3.95-5.75,7.53c-0.14,0.33-0.27,0.67-0.4,1.02
					c-0.51,1.32-0.98,2.68-1.44,4c-0.85,2.45-1.65,4.75-2.48,6.22c-1.69,2.95-2.71,6.64-3.28,9.22c-0.14,0.66-0.17,1.32-0.08,1.95
					c0.03,0.34,0.1,0.68,0.2,1c0.25,0.84,0.7,1.59,1.32,2.19c1.45,1.41,3.26,1.63,6.87,2.06c1.28,0.15,2.79,0.33,4.61,0.6
					c0.32,0.05,0.63,0.09,0.93,0.12c0.2,0.03,0.38,0.05,0.57,0.06c0.66,0.06,1.29,0.09,1.89,0.09c4.09,0,6.75-1.25,8.97-2.3
					c1.43-0.67,2.66-1.25,3.93-1.29c1.59-0.06,2.63-0.56,3.08-1.51c0.53-1.11,0.04-2.6-0.65-3.52c-0.15-0.19-0.16-0.25,0.21-0.67
					c0.24-0.26,0.54-0.59,0.5-1.05c-0.03-0.31-0.21-0.58-0.54-0.83c-0.41-0.31-0.95-0.43-1.53-0.44c0.39-0.08,0.82-0.27,1.28-0.62
					c2.02-1.51,1.3-2.9,0.29-4.83c-0.32-0.61-0.67-1.3-1.03-2.12c-1.12-2.56-4.09-1.48-5.86-0.84c-0.44,0.17-1.02,0.38-1.33,0.42
					c0.14-0.96,0.98-1.81,1.96-2.79C116.9,117.23,117.48,116.65,117.99,115.99z M113.38,120.63c-0.03,0.43,0.16,0.67,0.32,0.79
					c0.49,0.37,1.23,0.1,2.36-0.32c2.11-0.77,3.91-1.27,4.6,0.3c0.37,0.85,0.74,1.56,1.07,2.18c0.05,0.1,0.11,0.2,0.16,0.3
					c0.2,0.4,0.37,0.74,0.49,1.03c0.44,1.05,0.31,1.53-0.66,2.24c-0.58,0.44-1.14,0.59-1.65,0.43c-0.6-0.18-1.01-0.72-1.18-1.06
					c-0.02-0.04-0.04-0.07-0.05-0.1c-0.04-0.18-0.15-0.67-0.47-1.05c-0.07-0.1-0.17-0.2-0.29-0.28c-0.33-0.22-0.72-0.29-1.14-0.19
					c-0.43,0.11-1.04,0.4-1.88,0.91c-1.72,1.05-2.48,3.19-1.76,4.99c0.52,1.33,1.37,1.45,1.83,1.4c1.08-0.12,1.41-0.51,1.76-0.92
					c0.27-0.32,0.58-0.68,1.35-1.09c0.02-0.01,0.04-0.02,0.06-0.02c0.06-0.03,0.13-0.05,0.2-0.08c1.1-0.4,2.81-0.78,3.46-0.29
					c0.1,0.07,0.14,0.12,0.15,0.13c-0.03,0.06-0.16,0.2-0.24,0.29c-0.23,0.27-0.67,0.76-0.53,1.38c0.01,0.07,0.03,0.14,0.07,0.22
					c0.04,0.11,0.1,0.22,0.19,0.34c0.41,0.55,0.92,1.71,0.55,2.49c-0.35,0.73-1.4,0.91-2.22,0.94c-1.47,0.05-2.79,0.67-4.32,1.39
					c-2.66,1.25-5.98,2.81-11.78,1.95c-1.83-0.28-3.36-0.46-4.64-0.62c-1.75-0.21-3.02-0.35-4.01-0.6
					c-0.98-0.25-1.68-0.59-2.28-1.17c-1.06-1.03-1.5-2.64-1.16-4.22c0.55-2.51,1.54-6.09,3.17-8.93c0.88-1.55,1.69-3.9,2.56-6.39
					c0.42-1.2,0.85-2.45,1.31-3.66c0.12-0.34,0.25-0.68,0.39-1.01c1.38-3.49,3.01-6.51,5.19-7.24c0,0,0.04-0.01,0.11-0.01
					c0.14,0,0.41,0.03,0.58,0.23c0.18,0.21,0.53,0.93-0.2,3.07c-0.47,1.39-0.89,2.31-1.22,3.05c-0.75,1.65-1.16,2.56-1.1,5.85
					l0.02,1l0.79-0.61c0.07-0.06,1.78-1.42,3.57-4.8c2.01-3.78,6.4-7.37,8.58-7.65c0.39-0.05,0.65,0,0.8,0.17
					c1.37,1.49,1.2,2.7,0.95,3.11c-0.08,0.08-0.46,0.29-0.79,0.47c-1.82,1.01-6.07,3.37-7.48,8.48l-0.74,2.67l1.62-2.25
					c0.05-0.06,4.62-6.31,8.76-6.82c0.56-0.07,1.62-0.2,2.08-0.02c0.44,0.18,1.14,0.17,2.08-0.03c0.39-0.08,0.81,0.05,1.15,0.36
					c0.49,0.43,0.73,1.13,0.66,1.86c-0.05,0.44-1.69,0.59-2.77,0.69c-1.76,0.16-3.75,0.34-4.62,1.47c-0.47,0.61-1.02,1.17-1.55,1.7
					C114.53,118.2,113.49,119.25,113.38,120.63z M119.79,128.54c0.13,0.04,0.27,0.07,0.44,0.09c-1.13,0.15-2.19,0.56-2.41,0.65
					c-0.99,0.53-1.39,1-1.69,1.35c-0.3,0.35-0.42,0.5-1.11,0.57c-0.11,0.02-0.47,0.05-0.79-0.77c-0.54-1.35,0.04-2.97,1.35-3.76
					c0.97-0.59,1.41-0.75,1.6-0.79c0.05-0.02,0.1-0.02,0.14-0.02c0.09,0,0.15,0.03,0.19,0.05c0.2,0.14,0.32,0.54,0.34,0.7l0.03,0.11
					C118.06,127.2,118.68,128.21,119.79,128.54z"/>
			</g>
		</g>
	</g>
</g>
</svg>
